<svg xmlns="http://www.w3.org/2000/svg" width="94.04" height="48" viewBox="0 0 94.04 48">
  <g id="Grupo_3" data-name="Grupo 3" transform="translate(-609 -1512.177)">
    <g id="Grupo_1" data-name="Grupo 1" transform="translate(609 1512.177)">
      <path id="Caminho_1" data-name="Caminho 1" d="M885.88,1523.54a35.627,35.627,0,0,1-6.646,6.807s3.611-5.294,4.117-8.652a18.991,18.991,0,0,1-5.165-2.988,5.926,5.926,0,0,0,5.9-.452,13.353,13.353,0,0,0,.444-5.094,9.76,9.76,0,0,1,1.874,4.722,7.816,7.816,0,0,0,4.342-5.707,8.559,8.559,0,0,1-2.775,8.293s3.448,1.143,4.623,5.9c0,0-1.47-3.376-6.713-2.828" transform="translate(-833.106 -1512.177)" fill="#fbb800"/>
      <path id="Caminho_2" data-name="Caminho 2" d="M696.878,1569.932a7.036,7.036,0,0,0,.794,3.773,5.906,5.906,0,0,1-2.279.427c-2.224,0-2.578-1.2-2.694-1.772a6.6,6.6,0,0,1-5.042,1.8c-2.6,0-5.283-1.514-5.283-5.05,0-3.959,4.145-5.317,9.272-5.317h.742v-.316c0-1.735-1.327-2.571-3.456-2.571a10.338,10.338,0,0,0-4.7,1.347,3.5,3.5,0,0,1-.757-1.963c0-1.411,2.618-2.533,6.123-2.533,4.673,0,7.28,1.616,7.28,6v6.168Zm-4.42-3.806h-.484c-2.525,0-5.18.681-5.18,2.792a2.289,2.289,0,0,0,2.556,2.294,3.848,3.848,0,0,0,2.848-1.165,1.617,1.617,0,0,0,.259-1.047v-2.874Zm-48.951,3.806a7.032,7.032,0,0,0,.794,3.773,5.909,5.909,0,0,1-2.279.427c-2.224,0-2.579-1.2-2.694-1.772a6.6,6.6,0,0,1-5.042,1.8c-2.6,0-5.283-1.514-5.283-5.05,0-3.959,4.145-5.317,9.272-5.317h.742v-.316c0-1.735-1.327-2.571-3.456-2.571a10.336,10.336,0,0,0-4.7,1.347,3.506,3.506,0,0,1-.757-1.963c0-1.411,2.618-2.533,6.123-2.533,4.673,0,7.28,1.616,7.28,6v6.168Zm-4.42-3.806H638.6c-2.525,0-5.18.681-5.18,2.792a2.289,2.289,0,0,0,2.556,2.294,3.848,3.848,0,0,0,2.848-1.165,1.617,1.617,0,0,0,.259-1.047v-2.874Zm23.3-8.37c2.807.644,4.7,2.476,4.7,5.128v11.036H665a2.352,2.352,0,0,1-2.619-2.671v-13.493m-7.726,5c-.6,2.069-1.591,5.5-1.591,5.5l-1.481-4.146c-5.342-15.675-14.59-19.535-21.929-19.535a16.831,16.831,0,0,0-12.9,5.59.538.538,0,0,0-.184.361.242.242,0,0,0,.268.246.377.377,0,0,0,.241-.095,16.834,16.834,0,0,1,11.343-4.54c9.183,0,14.5,7.8,19.336,21.17h0l2.343,6.618h5.249l2.522-7.129,3.265-9.226c-3.8.225-5.558,2.014-6.48,5.188Zm15.72,5.923v-15.409a10.392,10.392,0,0,1,1.589-.131c1.535,0,3.108.487,3.108,2.625v2.3h4.834v3.346h-4.834v7.021a2.07,2.07,0,0,0,2.173,2.3,4.549,4.549,0,0,0,2.621-.917,4.058,4.058,0,0,1,.9,2,1.26,1.26,0,0,1-.363.836c-.242.274-1.568,1.525-4.644,1.525-4.385,0-5.387-2.643-5.387-5.489Zm-43.006-5.01c0,6.225-3.92,10.254-11.016,10.254H609v-20.124a51.23,51.23,0,0,1,6.492-.364c7.783,0,11.879,3.674,11.879,10.234m-4.834,0c0-4.5-2.114-7.007-6.7-7.007q-1,0-2.072.091v13.972h1.9c3.617,0,6.872-1.46,6.872-7.056" transform="translate(-609 -1539.3)" fill="#0070b3"/>
      <path id="Caminho_3" data-name="Caminho 3" d="M1148.914,1703.552a1.4,1.4,0,1,1,1.4,1.438,1.392,1.392,0,0,1-1.4-1.438Zm1.4,1.724a1.719,1.719,0,1,0-1.745-1.724,1.716,1.716,0,0,0,1.745,1.724Zm-.361-1.585h.339l.53.859h.334l-.56-.874a.516.516,0,0,0,.511-.545c0-.393-.234-.564-.706-.564h-.75v1.983h.3v-.859Zm0-.256v-.613h.41c.207,0,.431.045.431.29,0,.305-.228.323-.484.323Z" transform="translate(-1058.015 -1670.411)" fill="#0070b3"/>
    </g>
    <g id="Grupo_2" data-name="Grupo 2" transform="translate(609.212 1552.479)">
      <path id="Caminho_4" data-name="Caminho 4" d="M616.051,1756.015H613.7v6.49H612.6v-6.49h-2.363v-.918h5.809Z" transform="translate(-610.242 -1754.891)" fill="#0070b3"/>
      <path id="Caminho_5" data-name="Caminho 5" d="M643.8,1768.333a2.4,2.4,0,0,1,.609-.81,1.386,1.386,0,0,1,1.179-.255.825.825,0,0,1,.266.116l-.067.758a.163.163,0,0,1-.17.139,1.22,1.22,0,0,1-.217-.028,1.615,1.615,0,0,0-.31-.028,1.21,1.21,0,0,0-.428.069,1,1,0,0,0-.333.207,1.4,1.4,0,0,0-.26.335,3.387,3.387,0,0,0-.212.452v3.281h-1.006v-5.242h.578a.319.319,0,0,1,.224.06.39.39,0,0,1,.085.209Z" transform="translate(-637.294 -1764.954)" fill="#0070b3"/>
      <path id="Caminho_6" data-name="Caminho 6" d="M662.505,1768.06a2.877,2.877,0,0,1,2.079-.831,2.017,2.017,0,0,1,.795.147,1.641,1.641,0,0,1,.583.41,1.75,1.75,0,0,1,.359.63,2.566,2.566,0,0,1,.121.81v3.343h-.449a.428.428,0,0,1-.227-.049.34.34,0,0,1-.124-.183l-.108-.459a4.345,4.345,0,0,1-.4.328,2.568,2.568,0,0,1-.41.242,2.058,2.058,0,0,1-.457.152,2.581,2.581,0,0,1-.537.052,1.921,1.921,0,0,1-.58-.085,1.3,1.3,0,0,1-.472-.26,1.23,1.23,0,0,1-.317-.439,1.508,1.508,0,0,1-.116-.614,1.164,1.164,0,0,1,.168-.6,1.518,1.518,0,0,1,.547-.513,3.527,3.527,0,0,1,.991-.371,7.406,7.406,0,0,1,1.5-.165v-.382a1.335,1.335,0,0,0-.253-.888.926.926,0,0,0-.743-.294,1.628,1.628,0,0,0-.555.082,2.192,2.192,0,0,0-.387.183q-.163.1-.284.184a.44.44,0,0,1-.25.082.287.287,0,0,1-.178-.056.481.481,0,0,1-.121-.134Zm2.951,2.182a7.788,7.788,0,0,0-1.042.1,2.875,2.875,0,0,0-.7.2.945.945,0,0,0-.387.292.63.63,0,0,0-.119.374.809.809,0,0,0,.065.338.626.626,0,0,0,.175.232.7.7,0,0,0,.261.132,1.216,1.216,0,0,0,.325.041,1.807,1.807,0,0,0,.426-.046,1.691,1.691,0,0,0,.364-.132,1.826,1.826,0,0,0,.325-.209,2.933,2.933,0,0,0,.3-.283Z" transform="translate(-653.379 -1764.954)" fill="#0070b3"/>
      <path id="Caminho_7" data-name="Caminho 7" d="M693.609,1764.973a1.3,1.3,0,0,1-.978-.356,1.407,1.407,0,0,1-.343-1.016v-3.137h-.609a.2.2,0,0,1-.206-.217v-.407l.851-.119.227-1.563a.241.241,0,0,1,.08-.136.229.229,0,0,1,.152-.049h.511v1.759h1.486v.733h-1.486v3.07a.629.629,0,0,0,.152.462.529.529,0,0,0,.39.152.7.7,0,0,0,.24-.036.944.944,0,0,0,.173-.08q.072-.044.124-.08a.169.169,0,0,1,.093-.036.124.124,0,0,1,.08.023.29.29,0,0,1,.059.075l.3.485a1.739,1.739,0,0,1-.588.351A2.055,2.055,0,0,1,693.609,1764.973Z" transform="translate(-677.621 -1757.275)" fill="#0070b3"/>
      <path id="Caminho_8" data-name="Caminho 8" d="M714.24,1768.06a2.878,2.878,0,0,1,2.079-.831,2.018,2.018,0,0,1,.795.147,1.643,1.643,0,0,1,.583.41,1.749,1.749,0,0,1,.359.63,2.568,2.568,0,0,1,.121.81v3.343h-.449a.427.427,0,0,1-.227-.049.337.337,0,0,1-.124-.183l-.108-.459a4.343,4.343,0,0,1-.4.328,2.558,2.558,0,0,1-.41.242,2.057,2.057,0,0,1-.457.152,2.583,2.583,0,0,1-.537.052,1.921,1.921,0,0,1-.58-.085,1.3,1.3,0,0,1-.472-.26,1.235,1.235,0,0,1-.317-.439,1.508,1.508,0,0,1-.116-.614,1.164,1.164,0,0,1,.168-.6,1.518,1.518,0,0,1,.547-.513,3.529,3.529,0,0,1,.991-.371,7.407,7.407,0,0,1,1.5-.165v-.382a1.334,1.334,0,0,0-.253-.888.926.926,0,0,0-.743-.294,1.626,1.626,0,0,0-.555.082,2.2,2.2,0,0,0-.387.183q-.162.1-.284.184a.439.439,0,0,1-.25.082.287.287,0,0,1-.178-.056.478.478,0,0,1-.121-.134Zm2.951,2.182a7.793,7.793,0,0,0-1.042.1,2.879,2.879,0,0,0-.7.2.946.946,0,0,0-.387.292.632.632,0,0,0-.118.374.813.813,0,0,0,.064.338.628.628,0,0,0,.175.232.7.7,0,0,0,.261.132,1.216,1.216,0,0,0,.325.041,1.809,1.809,0,0,0,.426-.046,1.687,1.687,0,0,0,.364-.132,1.819,1.819,0,0,0,.325-.209,2.927,2.927,0,0,0,.3-.283Z" transform="translate(-696.291 -1764.954)" fill="#0070b3"/>
      <path id="Caminho_9" data-name="Caminho 9" d="M746.505,1772.643V1767.4h.6a.246.246,0,0,1,.263.2l.072.5a2.69,2.69,0,0,1,.642-.565,1.54,1.54,0,0,1,.828-.219,1.233,1.233,0,0,1,.846.286,1.65,1.65,0,0,1,.475.776,1.632,1.632,0,0,1,.294-.48,1.655,1.655,0,0,1,.4-.33,1.8,1.8,0,0,1,.472-.191,2.1,2.1,0,0,1,.508-.062,1.988,1.988,0,0,1,.746.132,1.468,1.468,0,0,1,.555.384,1.689,1.689,0,0,1,.346.624,2.773,2.773,0,0,1,.119.846v3.338h-1.011v-3.338a1.336,1.336,0,0,0-.255-.887.925.925,0,0,0-.746-.3,1.144,1.144,0,0,0-.413.075.949.949,0,0,0-.343.225,1.072,1.072,0,0,0-.232.371,1.441,1.441,0,0,0-.085.516v3.338H749.58v-3.338a1.381,1.381,0,0,0-.243-.9.877.877,0,0,0-.712-.289,1.137,1.137,0,0,0-.6.17,1.945,1.945,0,0,0-.511.464v3.89Z" transform="translate(-723.268 -1765.028)" fill="#0070b3"/>
      <path id="Caminho_10" data-name="Caminho 10" d="M799.362,1771.9a2.011,2.011,0,0,1-.428.374,2.491,2.491,0,0,1-.516.255,3.1,3.1,0,0,1-.565.144,3.634,3.634,0,0,1-.575.047,2.707,2.707,0,0,1-1-.183,2.235,2.235,0,0,1-.8-.537,2.446,2.446,0,0,1-.526-.877,3.549,3.549,0,0,1-.188-1.2,2.982,2.982,0,0,1,.17-1.019,2.455,2.455,0,0,1,.487-.823,2.25,2.25,0,0,1,.776-.552,2.548,2.548,0,0,1,1.032-.2,2.424,2.424,0,0,1,.885.157,1.963,1.963,0,0,1,.7.457,2.115,2.115,0,0,1,.462.737,2.792,2.792,0,0,1,.168,1,.639.639,0,0,1-.052.312.21.21,0,0,1-.191.08h-3.436a2.825,2.825,0,0,0,.134.818,1.653,1.653,0,0,0,.328.581,1.3,1.3,0,0,0,.5.346,1.749,1.749,0,0,0,.645.114,1.94,1.94,0,0,0,.58-.077,2.837,2.837,0,0,0,.423-.168c.119-.06.218-.117.3-.168a.411.411,0,0,1,.214-.078.222.222,0,0,1,.191.093Zm-.831-2.456a1.72,1.72,0,0,0-.085-.552,1.26,1.26,0,0,0-.25-.439,1.145,1.145,0,0,0-.4-.289,1.369,1.369,0,0,0-.547-.1,1.343,1.343,0,0,0-1,.366,1.773,1.773,0,0,0-.462,1.016Z" transform="translate(-763.294 -1765.028)" fill="#0070b3"/>
      <path id="Caminho_11" data-name="Caminho 11" d="M829.5,1768.129a3.579,3.579,0,0,1,.356-.33,2.222,2.222,0,0,1,.395-.255,2.1,2.1,0,0,1,.962-.225,1.872,1.872,0,0,1,.761.145,1.509,1.509,0,0,1,.549.405,1.761,1.761,0,0,1,.335.627,2.733,2.733,0,0,1,.114.81v3.338h-1.011v-3.338a1.334,1.334,0,0,0-.258-.874.964.964,0,0,0-.789-.312,1.5,1.5,0,0,0-.725.183,2.418,2.418,0,0,0-.627.5v3.844h-1.006V1767.4h.6a.246.246,0,0,1,.263.2Z" transform="translate(-791.325 -1765.028)" fill="#0070b3"/>
      <path id="Caminho_12" data-name="Caminho 12" d="M861.216,1764.973a1.3,1.3,0,0,1-.978-.356,1.406,1.406,0,0,1-.343-1.016v-3.137h-.609a.2.2,0,0,1-.207-.217v-.407l.851-.119.227-1.563a.241.241,0,0,1,.08-.136.23.23,0,0,1,.152-.049h.511v1.759h1.486v.733H860.9v3.07a.63.63,0,0,0,.152.462.529.529,0,0,0,.39.152.7.7,0,0,0,.24-.036.942.942,0,0,0,.173-.08q.072-.044.124-.08a.17.17,0,0,1,.093-.036.124.124,0,0,1,.08.023.292.292,0,0,1,.059.075l.3.485a1.736,1.736,0,0,1-.588.351A2.052,2.052,0,0,1,861.216,1764.973Z" transform="translate(-816.645 -1757.275)" fill="#0070b3"/>
      <path id="Caminho_13" data-name="Caminho 13" d="M884.486,1767.319a2.775,2.775,0,0,1,1.045.188,2.186,2.186,0,0,1,.795.542,2.412,2.412,0,0,1,.5.851,3.653,3.653,0,0,1,0,2.236,2.379,2.379,0,0,1-.5.851,2.2,2.2,0,0,1-.795.539,3.006,3.006,0,0,1-2.095,0,2.218,2.218,0,0,1-.8-.539,2.389,2.389,0,0,1-.508-.851,3.6,3.6,0,0,1,0-2.236,2.421,2.421,0,0,1,.508-.851,2.208,2.208,0,0,1,.8-.542A2.79,2.79,0,0,1,884.486,1767.319Zm0,4.613a1.286,1.286,0,0,0,1.109-.5,2.9,2.9,0,0,0,0-2.82,1.282,1.282,0,0,0-1.109-.5,1.3,1.3,0,0,0-1.122.5,2.878,2.878,0,0,0,0,2.82A1.3,1.3,0,0,0,884.486,1771.931Z" transform="translate(-835.618 -1765.028)" fill="#0070b3"/>
      <path id="Caminho_14" data-name="Caminho 14" d="M940.18,1762.506h-.98a.457.457,0,0,1-.428-.232l-1.831-2.569a.551.551,0,0,0-.191-.183.688.688,0,0,0-.309-.054h-.717v3.039h-1.1V1755.1h2.136a4.558,4.558,0,0,1,1.236.147,2.4,2.4,0,0,1,.856.418,1.666,1.666,0,0,1,.5.652,2.171,2.171,0,0,1,.162.857,2.2,2.2,0,0,1-.119.728,1.9,1.9,0,0,1-.348.611,2.2,2.2,0,0,1-.56.467,2.741,2.741,0,0,1-.748.3,1.136,1.136,0,0,1,.356.346Zm-3.457-3.839a2.451,2.451,0,0,0,.746-.1,1.523,1.523,0,0,0,.539-.292,1.2,1.2,0,0,0,.325-.449,1.482,1.482,0,0,0,.108-.575,1.144,1.144,0,0,0-.421-.965,2.046,2.046,0,0,0-1.261-.325h-1.037v2.709Z" transform="translate(-879.306 -1754.891)" fill="#0070b3"/>
      <path id="Caminho_15" data-name="Caminho 15" d="M972.414,1771.9a2,2,0,0,1-.428.374,2.491,2.491,0,0,1-.516.255,3.11,3.11,0,0,1-.565.144,3.639,3.639,0,0,1-.575.047,2.7,2.7,0,0,1-1-.183,2.234,2.234,0,0,1-.8-.537,2.445,2.445,0,0,1-.526-.877,3.544,3.544,0,0,1-.188-1.2,2.987,2.987,0,0,1,.17-1.019,2.454,2.454,0,0,1,.488-.823,2.249,2.249,0,0,1,.776-.552,2.547,2.547,0,0,1,1.032-.2,2.423,2.423,0,0,1,.885.157,1.961,1.961,0,0,1,.7.457,2.114,2.114,0,0,1,.462.737,2.793,2.793,0,0,1,.168,1,.64.64,0,0,1-.052.312.21.21,0,0,1-.191.08h-3.436a2.831,2.831,0,0,0,.134.818,1.661,1.661,0,0,0,.328.581,1.3,1.3,0,0,0,.5.346,1.748,1.748,0,0,0,.645.114,1.94,1.94,0,0,0,.58-.077,2.848,2.848,0,0,0,.423-.168c.119-.06.218-.117.3-.168a.41.41,0,0,1,.214-.078.222.222,0,0,1,.191.093Zm-.83-2.456a1.72,1.72,0,0,0-.085-.552,1.258,1.258,0,0,0-.25-.439,1.143,1.143,0,0,0-.4-.289,1.369,1.369,0,0,0-.547-.1,1.343,1.343,0,0,0-1,.366,1.774,1.774,0,0,0-.462,1.016Z" transform="translate(-906.835 -1765.028)" fill="#0070b3"/>
      <path id="Caminho_16" data-name="Caminho 16" d="M1002.55,1768.129a3.585,3.585,0,0,1,.356-.33,2.235,2.235,0,0,1,.395-.255,2.1,2.1,0,0,1,.962-.225,1.871,1.871,0,0,1,.761.145,1.509,1.509,0,0,1,.55.405,1.761,1.761,0,0,1,.336.627,2.735,2.735,0,0,1,.113.81v3.338h-1.011v-3.338a1.335,1.335,0,0,0-.258-.874.964.964,0,0,0-.789-.312,1.5,1.5,0,0,0-.725.183,2.419,2.419,0,0,0-.627.5v3.844h-1.006V1767.4h.6a.246.246,0,0,1,.263.2Z" transform="translate(-934.866 -1765.028)" fill="#0070b3"/>
      <path id="Caminho_17" data-name="Caminho 17" d="M1033.419,1768.06a2.879,2.879,0,0,1,2.08-.831,2.018,2.018,0,0,1,.794.147,1.64,1.64,0,0,1,.583.41,1.754,1.754,0,0,1,.359.63,2.564,2.564,0,0,1,.121.81v3.343h-.449a.428.428,0,0,1-.227-.049.338.338,0,0,1-.124-.183l-.109-.459a4.358,4.358,0,0,1-.4.328,2.557,2.557,0,0,1-.41.242,2.055,2.055,0,0,1-.457.152,2.577,2.577,0,0,1-.536.052,1.924,1.924,0,0,1-.581-.085,1.3,1.3,0,0,1-.472-.26,1.237,1.237,0,0,1-.318-.439,1.513,1.513,0,0,1-.115-.614,1.16,1.16,0,0,1,.167-.6,1.514,1.514,0,0,1,.547-.513,3.525,3.525,0,0,1,.991-.371,7.405,7.405,0,0,1,1.5-.165v-.382a1.334,1.334,0,0,0-.253-.888.925.925,0,0,0-.743-.294,1.627,1.627,0,0,0-.555.082,2.194,2.194,0,0,0-.387.183q-.163.1-.284.184a.44.44,0,0,1-.25.082.286.286,0,0,1-.178-.056.474.474,0,0,1-.121-.134Zm2.951,2.182a7.782,7.782,0,0,0-1.042.1,2.873,2.873,0,0,0-.7.2.945.945,0,0,0-.387.292.631.631,0,0,0-.119.374.811.811,0,0,0,.064.338.622.622,0,0,0,.176.232.7.7,0,0,0,.26.132,1.218,1.218,0,0,0,.325.041,1.807,1.807,0,0,0,.425-.046,1.688,1.688,0,0,0,.364-.132,1.822,1.822,0,0,0,.325-.209,2.875,2.875,0,0,0,.3-.283Z" transform="translate(-961.04 -1764.954)" fill="#0070b3"/>
      <path id="Caminho_18" data-name="Caminho 18" d="M1066.815,1753.887v7.616H1065.8v-7.616Z" transform="translate(-988.116 -1753.887)" fill="#0070b3"/>
    </g>
  </g>
</svg>
