<svg width="95" height="48" viewBox="0 0 95 48" fill="none" xmlns="http://www.w3.org/2000/svg">
<g clip-path="url(#clip0_103_46)">
<path d="M52.774 11.363C50.8729 13.9189 48.6377 16.2084 46.128 18.17C46.128 18.17 49.739 12.8759 50.245 9.51794C48.3766 8.80033 46.6334 7.79197 45.08 6.53003C46.0168 6.97828 47.055 7.17247 48.0905 7.09314C49.126 7.01381 50.1224 6.66372 50.98 6.078C51.4548 4.42446 51.6056 2.69476 51.424 0.984009C52.4546 2.36499 53.1011 3.99423 53.298 5.70605C54.4247 5.17036 55.4067 4.37273 56.1621 3.37988C56.9175 2.38703 57.4242 1.22776 57.64 -0.000976562C57.9657 1.50313 57.8799 3.06717 57.3916 4.52661C56.9032 5.98605 56.0304 7.28685 54.865 8.29199C54.865 8.29199 58.313 9.43502 59.488 14.192C59.488 14.192 58.018 10.816 52.775 11.364" fill="#FBB800"/>
<path d="M87.878 30.632C87.7862 31.9391 88.0612 33.2458 88.672 34.405C87.948 34.6965 87.1734 34.8416 86.393 34.832C84.169 34.832 83.815 33.632 83.699 33.06C83.0309 33.6956 82.2371 34.1842 81.3687 34.4942C80.5003 34.8042 79.5765 34.9289 78.657 34.8601C76.057 34.8601 73.374 33.346 73.374 29.81C73.374 25.851 77.519 24.493 82.646 24.493H83.388V24.1771C83.388 22.4421 82.061 21.606 79.932 21.606C78.2802 21.6728 76.6684 22.1347 75.232 22.9531C74.7843 22.3919 74.52 21.7065 74.475 20.9901C74.475 19.5791 77.093 18.457 80.598 18.457C85.271 18.457 87.878 20.073 87.878 24.457V30.6251V30.632ZM83.458 26.826H82.974C80.449 26.826 77.794 27.507 77.794 29.618C77.7911 29.9429 77.8573 30.2647 77.9883 30.562C78.1194 30.8592 78.3122 31.1252 78.554 31.3422C78.7958 31.5592 79.081 31.7223 79.3906 31.8205C79.7003 31.9188 80.0273 31.95 80.35 31.9121C80.8793 31.9243 81.4055 31.827 81.8955 31.6265C82.3856 31.4261 82.829 31.1267 83.198 30.747C83.4016 30.4379 83.493 30.0684 83.457 29.7V26.826H83.458ZM34.507 30.632C34.415 31.9391 34.69 33.2459 35.301 34.405C34.577 34.6964 33.8024 34.8416 33.022 34.832C30.798 34.832 30.443 33.632 30.328 33.06C29.66 33.6956 28.8661 34.1842 27.9977 34.4942C27.1293 34.8042 26.2055 34.9289 25.286 34.8601C22.686 34.8601 20.003 33.346 20.003 29.81C20.003 25.851 24.148 24.493 29.275 24.493H30.017V24.1771C30.017 22.4421 28.69 21.606 26.561 21.606C24.9091 21.6727 23.2974 22.1347 21.861 22.9531C21.4137 22.3917 21.1494 21.7065 21.104 20.9901C21.104 19.5791 23.722 18.457 27.227 18.457C31.9 18.457 34.507 20.073 34.507 24.457V30.6251V30.632ZM30.087 26.826H29.6C27.075 26.826 24.42 27.507 24.42 29.618C24.4171 29.9429 24.4833 30.2647 24.6144 30.562C24.7454 30.8592 24.9382 31.1252 25.18 31.3422C25.4218 31.5592 25.707 31.7223 26.0167 31.8205C26.3263 31.9188 26.6534 31.95 26.976 31.9121C27.5053 31.9243 28.0315 31.827 28.5215 31.6265C29.0116 31.4261 29.4549 31.1267 29.824 30.747C30.0276 30.4379 30.119 30.0684 30.083 29.7V26.826H30.087ZM53.387 18.456C56.194 19.1 58.087 20.9321 58.087 23.5841V34.6201H56C55.6408 34.6649 55.2761 34.6262 54.9343 34.507C54.5925 34.3878 54.2828 34.1913 54.0294 33.9328C53.7759 33.6743 53.5855 33.3609 53.4731 33.0168C53.3606 32.6727 53.3291 32.3073 53.381 31.949V18.456H53.387ZM45.655 23.456C45.055 25.525 44.064 28.956 44.064 28.956L42.583 24.81C37.241 9.13501 27.993 5.27498 20.654 5.27498C18.2279 5.2217 15.819 5.69378 13.5924 6.65864C11.3658 7.62351 9.37416 9.05843 7.75403 10.8651C7.64799 10.9568 7.58195 11.0863 7.57001 11.226C7.56924 11.2605 7.57579 11.2947 7.58929 11.3264C7.6028 11.358 7.62295 11.3865 7.64832 11.4097C7.67368 11.433 7.70374 11.4506 7.73645 11.4614C7.76916 11.4721 7.80378 11.4757 7.83801 11.472C7.92705 11.4698 8.01239 11.4362 8.07898 11.377C11.158 8.49659 15.2059 6.87641 19.422 6.83699C28.605 6.83699 33.922 14.637 38.758 28.007L41.101 34.6251H46.35L48.872 27.496L52.137 18.27C48.337 18.495 46.579 20.2841 45.657 23.4581L45.655 23.456ZM61.375 29.379V13.97C61.9005 13.8857 62.4317 13.842 62.964 13.8391C64.499 13.8391 66.072 14.3261 66.072 16.4641V18.764H70.906V22.1101H66.072V29.1311C66.0381 29.4305 66.0699 29.7337 66.1652 30.0195C66.2606 30.3053 66.4172 30.5668 66.6241 30.7858C66.8311 31.0049 67.0833 31.1761 67.3633 31.2875C67.6432 31.399 67.9442 31.4479 68.245 31.431C69.1929 31.406 70.1093 31.0854 70.866 30.514C71.3439 31.0854 71.6552 31.7774 71.766 32.514C71.7535 32.8282 71.6241 33.1264 71.403 33.35C71.161 33.624 69.835 34.8751 66.759 34.8751C62.374 34.8751 61.372 32.2321 61.372 29.3861L61.375 29.379ZM18.369 24.369C18.369 30.594 14.449 34.623 7.35303 34.623H0V14.499C2.15411 14.2403 4.32248 14.1188 6.492 14.1351C14.275 14.1351 18.371 17.809 18.371 24.369H18.369ZM13.537 24.369C13.537 19.869 11.423 17.362 6.83698 17.362C6.17031 17.362 5.47968 17.3924 4.76501 17.4531V31.425H6.66498C10.282 31.425 13.537 29.965 13.537 24.369" fill="black"/>
<path d="M90.899 33.141C90.9064 32.8659 90.9949 32.599 91.1532 32.3738C91.3115 32.1486 91.5327 31.9752 91.7891 31.875C92.0455 31.7749 92.3256 31.7525 92.5946 31.8107C92.8637 31.8689 93.1097 32.0052 93.3017 32.2024C93.4937 32.3997 93.6232 32.6491 93.6742 32.9196C93.7252 33.1901 93.6954 33.4696 93.5884 33.7232C93.4814 33.9768 93.302 34.1933 93.0727 34.3455C92.8433 34.4977 92.5742 34.5789 92.299 34.579C92.1116 34.5802 91.9259 34.5436 91.753 34.4712C91.5801 34.3989 91.4236 34.2924 91.2929 34.1581C91.1621 34.0238 91.0599 33.8645 90.9922 33.6897C90.9245 33.515 90.8928 33.3283 90.899 33.141V33.141ZM92.299 34.865C92.6376 34.8599 92.9672 34.7549 93.2464 34.5631C93.5255 34.3714 93.7418 34.1014 93.8681 33.7871C93.9944 33.4729 94.0249 33.1284 93.9561 32.7968C93.8873 32.4652 93.722 32.1614 93.4811 31.9234C93.2402 31.6854 92.9344 31.5238 92.602 31.459C92.2696 31.3942 91.9255 31.429 91.6128 31.5591C91.3001 31.6892 91.0328 31.9087 90.8444 32.1901C90.656 32.4715 90.555 32.8024 90.554 33.141C90.5529 33.3695 90.5975 33.5959 90.6851 33.8069C90.7727 34.018 90.9015 34.2095 91.064 34.37C91.2265 34.5306 91.4194 34.6571 91.6315 34.7421C91.8436 34.8271 92.0705 34.8689 92.299 34.865ZM91.938 33.2801H92.277L92.807 34.1391H93.141L92.581 33.2651C92.6508 33.2645 92.7199 33.2497 92.7838 33.2217C92.8478 33.1937 92.9055 33.1529 92.9533 33.102C93.0011 33.051 93.038 32.9909 93.0618 32.9252C93.0857 32.8596 93.096 32.7898 93.0921 32.72C93.0921 32.327 92.858 32.156 92.386 32.156H91.636V34.1391H91.9361V33.2801H91.938ZM91.938 33.0241V32.411H92.3481C92.5551 32.411 92.779 32.4561 92.779 32.7011C92.779 33.0061 92.5511 33.0241 92.2951 33.0241H91.938Z" fill="black"/>
<path d="M6.021 41.4261H3.66998V47.916H2.56995V41.4261H0.20697V40.5081H6.01599L6.021 41.4261Z" fill="black"/>
<path d="M6.71796 43.681C6.86099 43.3707 7.06863 43.0945 7.32697 42.871C7.49157 42.7424 7.68311 42.6527 7.88727 42.6085C8.09143 42.5643 8.30295 42.5669 8.50598 42.616C8.60081 42.6386 8.69086 42.678 8.77197 42.732L8.70496 43.49C8.69903 43.5302 8.67836 43.5667 8.64691 43.5924C8.61547 43.6181 8.57553 43.6312 8.53497 43.629C8.46195 43.6262 8.38934 43.6169 8.31799 43.6011C8.2158 43.5818 8.11199 43.5723 8.008 43.573C7.86234 43.57 7.71731 43.5934 7.57996 43.642C7.45638 43.6883 7.3432 43.7587 7.24695 43.849C7.14377 43.9468 7.05609 44.0598 6.98694 44.1841C6.90525 44.3293 6.83441 44.4803 6.77496 44.636V47.917H5.76898V42.675H6.34698C6.42653 42.6662 6.50649 42.6876 6.57098 42.735C6.61929 42.7947 6.64882 42.8674 6.65594 42.944L6.71796 43.681Z" fill="black"/>
<path d="M9.33797 43.4081C9.61138 43.1377 9.93621 42.9248 10.2933 42.7821C10.6504 42.6393 11.0325 42.5696 11.417 42.5771C11.6892 42.5719 11.9596 42.6219 12.212 42.7241C12.434 42.8164 12.633 42.9564 12.7949 43.1341C12.9573 43.3167 13.0796 43.5313 13.154 43.7641C13.2374 44.0259 13.2783 44.2993 13.275 44.574V47.9171H12.8259C12.7472 47.922 12.6687 47.9051 12.599 47.8681C12.5384 47.8226 12.4948 47.7582 12.475 47.6851L12.367 47.2261C12.2403 47.3433 12.1067 47.4529 11.9669 47.5541C11.8381 47.6473 11.7008 47.7283 11.557 47.7961C11.4111 47.8645 11.2578 47.9155 11.1 47.9481C10.9233 47.9841 10.7433 48.0015 10.5629 48.0001C10.3664 48.0016 10.1708 47.9729 9.98299 47.9151C9.80923 47.8624 9.64839 47.7738 9.51095 47.6551C9.37398 47.5341 9.26573 47.3842 9.19399 47.2161C9.11288 47.0218 9.07334 46.8126 9.07796 46.6021C9.0784 46.3906 9.13651 46.1832 9.24599 46.0021C9.38255 45.7881 9.57062 45.6116 9.79299 45.4891C10.1028 45.3163 10.4368 45.1912 10.784 45.1181C11.277 45.0122 11.7796 44.9569 12.284 44.9531V44.5711C12.3079 44.2544 12.2182 43.9395 12.031 43.6831C11.9369 43.5817 11.8214 43.5027 11.6928 43.4519C11.5643 43.401 11.4259 43.3795 11.288 43.3891C11.0996 43.3841 10.9119 43.4119 10.733 43.4711C10.5983 43.5194 10.4687 43.5806 10.346 43.6541C10.2373 43.7208 10.1426 43.7821 10.062 43.8381C9.98895 43.8903 9.90172 43.9189 9.81197 43.9201C9.74806 43.9218 9.68543 43.9021 9.63399 43.8641C9.58556 43.8275 9.54447 43.782 9.51296 43.73L9.33797 43.4081ZM12.289 45.59C11.9398 45.6 11.5917 45.6335 11.247 45.6901C11.0061 45.7269 10.7709 45.794 10.547 45.8901C10.3948 45.9521 10.2614 46.0527 10.16 46.1821C10.0815 46.2909 10.0398 46.4219 10.041 46.5561C10.0381 46.6721 10.0603 46.7874 10.106 46.8941C10.1453 46.9841 10.2052 47.0635 10.281 47.126C10.3577 47.1879 10.4466 47.233 10.542 47.2581C10.6479 47.2864 10.7573 47.3002 10.867 47.2991C11.0103 47.3008 11.1533 47.2853 11.293 47.2531C11.419 47.2232 11.5411 47.1788 11.6569 47.121C11.7724 47.0631 11.8813 46.993 11.982 46.9121C12.0885 46.8249 12.1887 46.7304 12.2819 46.6291L12.289 45.59Z" fill="black"/>
<path d="M16.2 48C16.0212 48.0113 15.8421 47.9854 15.6738 47.9241C15.5055 47.8629 15.3517 47.7675 15.222 47.644C14.978 47.3639 14.8547 46.9986 14.879 46.628V43.491H14.27C14.2417 43.492 14.2136 43.487 14.1874 43.4762C14.1612 43.4655 14.1377 43.4494 14.1182 43.4289C14.0987 43.4084 14.0838 43.3839 14.0745 43.3572C14.0652 43.3305 14.0616 43.3021 14.064 43.274V42.867L14.9149 42.748L15.142 41.185C15.1527 41.132 15.1808 41.0841 15.222 41.049C15.2651 41.0149 15.3191 40.9976 15.374 41H15.885V42.7591H17.371V43.492H15.885V46.5621C15.8784 46.6453 15.8884 46.7289 15.9145 46.8083C15.9406 46.8876 15.9822 46.9609 16.037 47.024C16.0882 47.0745 16.1492 47.114 16.2163 47.1402C16.2833 47.1663 16.355 47.1786 16.427 47.1761C16.5085 47.1781 16.5897 47.1659 16.667 47.1401C16.7272 47.1193 16.7852 47.0924 16.84 47.06C16.888 47.0306 16.9293 47.004 16.964 46.98C16.9906 46.9589 17.0231 46.9464 17.057 46.944C17.0855 46.9422 17.1138 46.9503 17.137 46.967C17.1607 46.9885 17.1806 47.0139 17.196 47.042L17.496 47.527C17.3252 47.6818 17.1253 47.8011 16.908 47.878C16.681 47.9599 16.4413 48.0013 16.2 48Z" fill="black"/>
<path d="M18.161 43.4081C18.4344 43.1378 18.7593 42.9249 19.1163 42.7822C19.4734 42.6394 19.8555 42.5697 20.2399 42.5771C20.5121 42.572 20.7826 42.6219 21.035 42.7241C21.257 42.8164 21.456 42.9564 21.618 43.1341C21.7804 43.3167 21.9027 43.5313 21.977 43.7641C22.0604 44.0259 22.1012 44.2993 22.098 44.574V47.9171H21.649C21.5703 47.922 21.4916 47.9051 21.4219 47.8681C21.3612 47.8228 21.3176 47.7583 21.298 47.6851L21.19 47.2261C21.0633 47.3433 20.9297 47.4528 20.79 47.5541C20.6611 47.6474 20.5238 47.7283 20.38 47.7961C20.2341 47.8645 20.0807 47.9155 19.923 47.9481C19.7463 47.9841 19.5663 48.0015 19.386 48.0001C19.1895 48.0016 18.9938 47.9729 18.806 47.9151C18.6322 47.8624 18.4714 47.7738 18.334 47.6551C18.1972 47.534 18.0889 47.3841 18.017 47.2161C17.9359 47.0218 17.8963 46.8126 17.901 46.6021C17.9014 46.3906 17.9595 46.1832 18.069 46.0021C18.2055 45.7881 18.3936 45.6116 18.616 45.4891C18.9258 45.3163 19.2598 45.1913 19.6069 45.1181C20.1 45.0122 20.6026 44.9569 21.1069 44.9531V44.5711C21.131 44.2544 21.0413 43.9395 20.854 43.683C20.7599 43.5817 20.6444 43.5027 20.5158 43.4518C20.3872 43.401 20.2489 43.3795 20.111 43.3891C19.9226 43.3841 19.7348 43.4118 19.556 43.4711C19.4213 43.5194 19.2917 43.5807 19.169 43.6541C19.061 43.7208 18.9663 43.7821 18.885 43.8381C18.812 43.8903 18.7247 43.919 18.635 43.9201C18.571 43.9218 18.5084 43.902 18.457 43.8641C18.4085 43.8275 18.3674 43.782 18.336 43.73L18.161 43.4081ZM21.112 45.59C20.7628 45.6 20.4147 45.6335 20.07 45.6901C19.8291 45.7269 19.5939 45.7941 19.3699 45.8901C19.2178 45.9521 19.0844 46.0528 18.983 46.1821C18.905 46.2911 18.8636 46.4221 18.8649 46.5561C18.8619 46.672 18.8838 46.7873 18.929 46.8941C18.9684 46.9841 19.0283 47.0634 19.104 47.126C19.1807 47.1879 19.2696 47.233 19.3649 47.2581C19.4709 47.2864 19.5803 47.3002 19.69 47.2991C19.8333 47.3007 19.9763 47.2853 20.116 47.2531C20.242 47.2232 20.3641 47.1789 20.48 47.121C20.5954 47.0631 20.7043 46.9931 20.8049 46.912C20.9115 46.8249 21.0118 46.7304 21.105 46.6291L21.112 45.59Z" fill="black"/>
<path d="M23.449 47.917V42.6741H24.049C24.1098 42.6688 24.1704 42.6863 24.2191 42.7233C24.2677 42.7603 24.3008 42.814 24.312 42.874L24.384 43.374C24.5665 43.1527 24.7832 42.962 25.0259 42.8091C25.2757 42.6593 25.5628 42.5833 25.8539 42.5901C26.1618 42.5764 26.4636 42.6784 26.7 42.8761C26.9279 43.0852 27.0925 43.354 27.175 43.6521C27.2444 43.4763 27.3439 43.3138 27.469 43.172C27.5842 43.0417 27.7191 42.9304 27.869 42.8421C28.0164 42.7564 28.1754 42.692 28.3409 42.651C28.5071 42.6097 28.6778 42.5889 28.849 42.589C29.1038 42.5848 29.3571 42.6297 29.595 42.7211C29.8073 42.8043 29.9973 42.9358 30.15 43.1051C30.3084 43.2861 30.4264 43.4988 30.496 43.729C30.5791 44.0032 30.6193 44.2886 30.615 44.5751V47.9131H29.6039V44.5751C29.627 44.2585 29.5367 43.944 29.349 43.688C29.2552 43.5851 29.1394 43.5047 29.0103 43.4528C28.8811 43.4008 28.7419 43.3787 28.603 43.3881C28.4619 43.3874 28.3218 43.4128 28.1899 43.463C28.0606 43.5121 27.9435 43.5889 27.847 43.688C27.745 43.7944 27.666 43.9208 27.615 44.0591C27.5554 44.2245 27.5266 44.3993 27.53 44.5751V47.9131H26.524V44.5751C26.5498 44.256 26.4638 43.9378 26.2809 43.6751C26.192 43.576 26.0817 43.4985 25.9583 43.4484C25.835 43.3983 25.7018 43.3771 25.569 43.3861C25.357 43.3858 25.1492 43.4446 24.969 43.5561C24.7724 43.679 24.5993 43.8361 24.4579 44.02V47.9101L23.449 47.917Z" fill="black"/>
<path d="M36.28 47.174C36.1557 47.3183 36.0116 47.4443 35.852 47.5481C35.6904 47.6527 35.5173 47.7383 35.336 47.8031C35.1526 47.8687 34.9634 47.9168 34.771 47.947C34.5809 47.9779 34.3886 47.9936 34.196 47.994C33.8541 47.9967 33.5148 47.9346 33.196 47.811C32.8934 47.6923 32.6204 47.509 32.396 47.274C32.1608 47.022 31.9816 46.7232 31.87 46.3971C31.7388 46.0108 31.6752 45.6048 31.6819 45.197C31.6789 44.85 31.7365 44.5053 31.852 44.1781C31.9588 43.8745 32.1243 43.5948 32.339 43.3551C32.5553 43.1178 32.8199 42.9296 33.115 42.8031C33.4413 42.6654 33.7928 42.5972 34.147 42.603C34.4492 42.5997 34.7493 42.6529 35.032 42.76C35.2954 42.8603 35.5342 43.0162 35.732 43.217C35.9354 43.428 36.0927 43.679 36.194 43.9541C36.3105 44.2744 36.3674 44.6133 36.3619 44.9541C36.371 45.0608 36.3532 45.168 36.31 45.266C36.2878 45.2947 36.2585 45.3171 36.225 45.3311C36.1916 45.3452 36.155 45.3503 36.119 45.346H32.683C32.6872 45.6238 32.7323 45.8994 32.817 46.164C32.8857 46.378 32.9973 46.5756 33.145 46.745C33.2819 46.8982 33.4533 47.0168 33.645 47.091C33.8509 47.1693 34.0697 47.208 34.29 47.205C34.4861 47.2088 34.6817 47.1829 34.87 47.128C35.0153 47.0834 35.1567 47.0273 35.293 46.96C35.412 46.9 35.511 46.843 35.593 46.792C35.6555 46.7463 35.7297 46.7193 35.8069 46.714C35.844 46.7123 35.8809 46.7199 35.9143 46.7362C35.9477 46.7524 35.9765 46.7767 35.998 46.807L36.28 47.174ZM35.449 44.718C35.4509 44.5306 35.4222 44.3441 35.364 44.166C35.3111 44.0043 35.2261 43.855 35.114 43.727C35.0032 43.6028 34.8667 43.5041 34.714 43.438C34.5404 43.3676 34.3542 43.3335 34.167 43.338C33.9842 43.3276 33.8011 43.3547 33.6291 43.4177C33.4572 43.4806 33.2999 43.5781 33.167 43.7041C32.9076 43.9842 32.7456 44.3405 32.705 44.7201L35.449 44.718Z" fill="black"/>
<path d="M38.387 43.4031C38.498 43.2852 38.617 43.1748 38.743 43.073C38.8653 42.9743 38.9976 42.8888 39.1379 42.818C39.4361 42.6676 39.766 42.5905 40.1 42.593C40.361 42.5878 40.6202 42.6372 40.861 42.738C41.0725 42.8294 41.2603 42.9679 41.41 43.1431C41.5631 43.3271 41.6771 43.5404 41.7449 43.77C41.8234 44.0328 41.8618 44.3059 41.8589 44.5801V47.9181H40.848V44.5801C40.8672 44.2675 40.7759 43.9581 40.59 43.7061C40.491 43.5973 40.3684 43.5127 40.2316 43.4586C40.0949 43.4045 39.9476 43.3824 39.801 43.394C39.5477 43.3929 39.2983 43.4558 39.076 43.577C38.8406 43.7076 38.6287 43.8766 38.449 44.077V47.921H37.443V42.6741H38.043C38.1038 42.6688 38.1644 42.6863 38.213 42.7233C38.2616 42.7602 38.2948 42.814 38.306 42.874L38.387 43.4031Z" fill="black"/>
<path d="M44.783 48C44.6042 48.0113 44.4251 47.9854 44.2568 47.9241C44.0885 47.8628 43.9346 47.7675 43.8049 47.6439C43.5609 47.3639 43.4376 46.9986 43.462 46.628V43.491H42.853C42.8246 43.4921 42.7964 43.4871 42.7701 43.4765C42.7438 43.4658 42.7201 43.4497 42.7005 43.4292C42.6809 43.4087 42.666 43.3842 42.6566 43.3574C42.6472 43.3307 42.6435 43.3022 42.646 43.274V42.867L43.497 42.748L43.724 41.185C43.7346 41.1319 43.7628 41.084 43.804 41.049C43.8472 41.015 43.9011 40.9977 43.9559 41H44.467V42.7591H45.953V43.492H44.467V46.562C44.4605 46.6453 44.4705 46.7289 44.4966 46.8083C44.5227 46.8876 44.5643 46.9609 44.619 47.024C44.6702 47.0745 44.7312 47.114 44.7983 47.1402C44.8654 47.1663 44.9371 47.1786 45.009 47.1761C45.0905 47.1781 45.1717 47.1659 45.249 47.14C45.3092 47.1193 45.3671 47.0924 45.422 47.06C45.47 47.0306 45.5113 47.004 45.546 46.98C45.5727 46.959 45.6051 46.9464 45.639 46.944C45.6675 46.9422 45.6957 46.9503 45.7189 46.9669C45.7426 46.9885 45.7625 47.014 45.778 47.042L46.078 47.527C45.9072 47.6819 45.7073 47.8012 45.4899 47.878C45.2633 47.9598 45.024 48.0012 44.783 48V48Z" fill="black"/>
<path d="M49.08 42.593C49.4372 42.5878 49.792 42.6516 50.125 42.781C50.427 42.9003 50.6985 43.0855 50.92 43.3229C51.1435 43.5691 51.3138 43.8589 51.42 44.174C51.6537 44.901 51.6537 45.683 51.42 46.41C51.3146 46.7255 51.1443 47.0155 50.92 47.2611C50.6979 47.4971 50.4265 47.6811 50.125 47.8C49.4493 48.0512 48.7057 48.0512 48.03 47.8C47.727 47.6812 47.4539 47.4972 47.23 47.2611C47.003 47.016 46.83 46.726 46.722 46.41C46.4846 45.6835 46.4846 44.9005 46.722 44.174C46.8308 43.8584 47.0038 43.5685 47.23 43.3229C47.4533 43.0854 47.7265 42.9003 48.03 42.781C48.3646 42.6513 48.7212 42.5875 49.08 42.593V42.593ZM49.08 47.206C49.2918 47.2207 49.5038 47.1827 49.6973 47.0954C49.8908 47.0082 50.0597 46.8744 50.189 46.706C50.4289 46.2748 50.5549 45.7894 50.5549 45.296C50.5549 44.8025 50.4289 44.3173 50.189 43.8861C50.06 43.7174 49.8911 43.5833 49.6976 43.496C49.504 43.4088 49.2918 43.371 49.08 43.3861C48.8663 43.3705 48.652 43.4078 48.4562 43.4951C48.2605 43.5823 48.0893 43.7167 47.958 43.8861C47.716 44.3166 47.5889 44.8021 47.5889 45.296C47.5889 45.7898 47.716 46.2755 47.958 46.706C48.0894 46.8752 48.2606 47.0092 48.4564 47.0963C48.6521 47.1833 48.8664 47.2207 49.08 47.205V47.206Z" fill="black"/>
<path d="M61.086 47.9171H60.106C60.02 47.9227 59.9342 47.9039 59.8585 47.8629C59.7828 47.8218 59.7202 47.7602 59.6779 47.6851L57.847 45.1161C57.7991 45.0404 57.7336 44.9777 57.656 44.9331C57.5585 44.8915 57.4527 44.8731 57.347 44.8791H56.63V47.9181H55.53V40.5111H57.666C58.0828 40.5033 58.4986 40.5528 58.9019 40.658C59.2123 40.7388 59.5034 40.881 59.758 41.0761C59.9765 41.2483 60.1483 41.4724 60.258 41.7281C60.3694 41.9999 60.4245 42.2914 60.42 42.585C60.4215 42.8327 60.3814 43.0788 60.301 43.3131C60.224 43.5366 60.106 43.7438 59.953 43.924C59.7936 44.1098 59.6043 44.2676 59.393 44.3911C59.1598 44.5274 58.9077 44.6285 58.645 44.6911C58.7877 44.7788 58.9092 44.8969 59.0009 45.0371L61.086 47.9171ZM57.629 44.0781C57.8813 44.0834 58.1329 44.0497 58.375 43.9781C58.5726 43.9183 58.756 43.819 58.914 43.6861C59.0559 43.5639 59.1672 43.4101 59.239 43.2371C59.3128 43.0546 59.3495 42.859 59.347 42.6621C59.3592 42.4793 59.3273 42.2962 59.2541 42.1283C59.1808 41.9603 59.0683 41.8125 58.926 41.6971C58.5523 41.4543 58.1095 41.3403 57.6649 41.3722H56.628V44.0811L57.629 44.0781Z" fill="black"/>
<path d="M65.791 47.174C65.6668 47.3184 65.5227 47.4444 65.363 47.5481C65.2014 47.6527 65.0282 47.7383 64.847 47.8031C64.6635 47.8687 64.4744 47.9168 64.282 47.947C64.0919 47.9779 63.8996 47.9936 63.707 47.994C63.3651 47.9969 63.0257 47.9348 62.707 47.811C62.4044 47.6923 62.1314 47.5091 61.907 47.274C61.6718 47.022 61.4926 46.7232 61.381 46.3971C61.2498 46.0109 61.1861 45.6048 61.193 45.197C61.19 44.85 61.2476 44.5053 61.363 44.1781C61.4701 43.8744 61.6359 43.5947 61.851 43.3551C62.0673 43.1178 62.3319 42.9296 62.627 42.8031C62.9533 42.6654 63.3048 42.5972 63.659 42.603C63.9612 42.5997 64.2613 42.6529 64.544 42.76C64.8074 42.8602 65.0462 43.0161 65.244 43.217C65.4474 43.428 65.6047 43.679 65.706 43.9541C65.8225 44.2744 65.8795 44.6133 65.874 44.9541C65.883 45.0608 65.8652 45.1679 65.822 45.266C65.7998 45.2947 65.7705 45.3171 65.737 45.3311C65.7036 45.3452 65.667 45.3503 65.631 45.346H62.195C62.1993 45.6238 62.2444 45.8994 62.329 46.164C62.3979 46.3779 62.5095 46.5755 62.657 46.745C62.794 46.8982 62.9653 47.0168 63.157 47.091C63.3629 47.1693 63.5817 47.208 63.802 47.205C63.9981 47.2089 64.1937 47.1829 64.382 47.128C64.5272 47.0834 64.6687 47.0272 64.805 46.9601C64.924 46.9001 65.023 46.843 65.105 46.792C65.1675 46.7463 65.2417 46.7192 65.319 46.714C65.3561 46.7123 65.3929 46.7199 65.4263 46.7362C65.4597 46.7524 65.4885 46.7767 65.51 46.807L65.791 47.174ZM64.961 44.718C64.9629 44.5306 64.9342 44.3441 64.876 44.166C64.8232 44.0043 64.7382 43.8549 64.626 43.727C64.5153 43.6027 64.3788 43.504 64.226 43.438C64.0524 43.3676 63.8662 43.3335 63.679 43.338C63.4962 43.3276 63.3131 43.3548 63.1411 43.4177C62.9692 43.4806 62.8119 43.5781 62.679 43.7041C62.4197 43.9842 62.2577 44.3405 62.217 44.7201L64.961 44.718Z" fill="black"/>
<path d="M67.896 43.4031C68.007 43.2852 68.126 43.1748 68.252 43.073C68.3743 42.9744 68.5067 42.8889 68.647 42.818C68.9452 42.6676 69.275 42.5905 69.609 42.593C69.87 42.5877 70.1292 42.6372 70.37 42.738C70.5818 42.8292 70.77 42.9678 70.92 43.1431C71.0734 43.327 71.1878 43.5403 71.256 43.77C71.334 44.0328 71.3721 44.306 71.369 44.5801V47.9181H70.358V44.5801C70.3772 44.2675 70.2859 43.9581 70.1 43.7061C70.001 43.5973 69.8784 43.5127 69.7417 43.4586C69.6049 43.4045 69.4576 43.3824 69.311 43.3941C69.0578 43.3929 68.8083 43.4558 68.586 43.577C68.3506 43.7077 68.1387 43.8766 67.959 44.077V47.921H66.953V42.6741H67.5529C67.6138 42.6688 67.6744 42.6863 67.7231 42.7233C67.7717 42.7602 67.8048 42.814 67.8159 42.874L67.896 43.4031Z" fill="black"/>
<path d="M72.5909 43.4082C72.8645 43.1377 73.1896 42.9248 73.5469 42.7821C73.9041 42.6393 74.2864 42.5696 74.671 42.5771C74.9429 42.5721 75.2129 42.6221 75.465 42.7241C75.687 42.8163 75.886 42.9564 76.048 43.1341C76.2102 43.3168 76.3325 43.5314 76.407 43.7641C76.4905 44.0259 76.5313 44.2993 76.528 44.574V47.9171H76.079C76.0002 47.922 75.9218 47.9051 75.852 47.8681C75.7914 47.8227 75.7477 47.7583 75.728 47.6851L75.619 47.2261C75.4923 47.3433 75.3587 47.4528 75.219 47.5541C75.0901 47.6474 74.9529 47.7284 74.809 47.7961C74.6631 47.8645 74.5098 47.9155 74.352 47.9481C74.1757 47.9841 73.996 48.0015 73.816 48.0001C73.6192 48.0016 73.4232 47.973 73.235 47.9151C73.0612 47.8624 72.9004 47.7738 72.7629 47.6551C72.6258 47.5341 72.5172 47.3842 72.4449 47.2161C72.3643 47.0217 72.3252 46.8126 72.33 46.6021C72.3299 46.3906 72.3876 46.1832 72.4969 46.0021C72.6334 45.788 72.8215 45.6115 73.0439 45.4891C73.3537 45.3163 73.6879 45.1912 74.035 45.1181C74.5281 45.0122 75.0307 44.9569 75.535 44.9531V44.5711C75.5591 44.2544 75.4693 43.9395 75.282 43.6831C75.188 43.5816 75.0724 43.5026 74.9438 43.4517C74.8153 43.4009 74.6769 43.3795 74.5389 43.3891C74.3506 43.3841 74.1629 43.4119 73.984 43.4711C73.8493 43.5194 73.7198 43.5807 73.597 43.6541C73.4884 43.7208 73.3937 43.7821 73.313 43.8381C73.24 43.8903 73.1527 43.9189 73.063 43.9201C72.9991 43.9219 72.9364 43.9021 72.885 43.8641C72.8365 43.8276 72.7954 43.7821 72.764 43.7301L72.5909 43.4082ZM75.542 45.59C75.1928 45.5999 74.8447 45.6335 74.5 45.6901C74.2591 45.7268 74.024 45.794 73.8 45.8901C73.6478 45.9521 73.5144 46.0527 73.413 46.1821C73.3345 46.2909 73.2928 46.422 73.2939 46.5561C73.2909 46.672 73.3128 46.7873 73.358 46.8941C73.3975 46.9843 73.4579 47.0637 73.5341 47.126C73.6105 47.1878 73.699 47.2329 73.7939 47.2581C73.8999 47.2864 74.0093 47.3002 74.119 47.2991C74.262 47.3007 74.4046 47.2852 74.5439 47.2531C74.6699 47.2232 74.7921 47.1789 74.908 47.121C75.0234 47.0631 75.1324 46.993 75.233 46.9121C75.3397 46.825 75.4399 46.7305 75.533 46.6291L75.542 45.59Z" fill="black"/>
<path d="M78.9109 40.302V47.9181H77.896V40.302H78.9109Z" fill="black"/>
</g>
<defs>
<clipPath id="clip0_103_46">
<rect width="94.04" height="48" fill="white"/>
</clipPath>
</defs>
</svg>
